<?xml version="1.0" encoding="UTF-8" standalone="no"?>
<svg
   viewBox="0 0 650 650"
   version="1.1"
   id="svg10"
   width="650"
   height="650"
   xmlns="http://www.w3.org/2000/svg"
   xmlns:svg="http://www.w3.org/2000/svg">
  <defs
     id="defs4">
    <style
       id="style2">.fa-secondary{opacity:.4}</style>
  </defs>
  <path
     d="m 328.06885,237.64788 -204.27,39.9 a 48.1,48.1 0 0 0 -38.739997,44.73 32,32 0 0 1 2.21,53.94 l 25.399997,114.26 a 16,16 0 0 1 -15.669997,19.47 h -56.06 a 16,16 0 0 1 -15.61,-19.47 l 25.39,-114.27 a 32,32 0 0 1 2.33,-54 80.16,80.16 0 0 1 64.619997,-76.07 l 204.26,-39.89 a 16,16 0 1 1 6.14,31.4 z"
     class="fa-secondary"
     id="path6"
     style="opacity:1;fill:#484f59;fill-opacity:1" />
  <path
     d="m 627.32885,260.74788 -279,85.7 a 80,80 0 0 1 -46.79,0 l -196.87,-60.5 a 47.84,47.84 0 0 1 19.13,-8.39 l 204.27,-39.9 a 16,16 0 1 0 -6.14,-31.4 l -204.26,39.88 a 79.87,79.87 0 0 0 -47.569997,29.18 l -47.44,-14.58 c -23.53999954,-7.23 -23.53999954,-38.36 0,-45.59 l 278.939997,-85.7 a 79.92,79.92 0 0 1 46.8,0 l 278.93,85.7 c 23.55,7.24 23.55,38.36 0,45.6 z m -269.54,116.29 a 111.94,111.94 0 0 1 -65.59,0 l -145,-44.55 -14.2,113.46 c 0,35.35 86,64 192,64 106,0 192,-28.65 192,-64 l -14.19,-113.47 z"
     class="fa-primary"
     id="path8"
     style="fill:#9b0014;fill-opacity:1" />
</svg>
